<!--?xml version="1.0" standalone="no"?-->
              <svg id="sw-js-blob-svg" viewBox="0 0 100 100" xmlns="http://www.w3.org/2000/svg" version="1.1">
                    <defs> 
                        <linearGradient id="sw-gradient" x1="0" x2="1" y1="1" y2="0">
                            <stop id="stop1" stop-color="rgba(248, 117, 55, 1)" offset="0%"></stop>
                            <stop id="stop2" stop-color="rgba(251, 168, 31, 1)" offset="100%"></stop>
                        </linearGradient>
                    </defs>
                <path fill="url(#sw-gradient)" d="M15.8,-29.4C21.1,-24.3,26.4,-21.3,31.2,-16.7C36,-12.2,40.2,-6.1,38.2,-1.2C36.2,3.8,27.9,7.6,24.2,14C20.5,20.3,21.3,29.3,18,33.6C14.8,37.9,7.4,37.4,0.7,36.3C-6.1,35.1,-12.1,33.3,-16.1,29.5C-20.1,25.6,-21.9,19.7,-24.8,14.4C-27.7,9.1,-31.7,4.6,-33.9,-1.3C-36.1,-7.1,-36.4,-14.2,-32.3,-17.3C-28.2,-20.5,-19.6,-19.8,-13.5,-24.5C-7.3,-29.2,-3.7,-39.2,0.8,-40.6C5.2,-42,10.5,-34.6,15.8,-29.4Z" width="100%" height="100%" transform="translate(50 50)" stroke-width="0" style="transition: 0.3s;"></path>
              </svg>