<!--?xml version="1.0" standalone="no"?-->
<svg id="sw-js-blob-svg" viewBox="0 0 100 100" xmlns="http://www.w3.org/2000/svg" version="1.1">
      <defs> 
          <linearGradient id="sw-gradient" x1="0" x2="1" y1="1" y2="0">
              <stop id="stop1" stop-color="rgba(0, 166, 244, 1)" offset="0%"></stop>
              <stop id="stop2" stop-color="rgba(0, 184, 219, 1)" offset="100%"></stop>
          </linearGradient>
      </defs>
  <path fill="url(#sw-gradient)" d="M21,-30.7C28.3,-27.9,36.2,-24,40,-17.7C43.8,-11.3,43.6,-2.5,40,4.1C36.4,10.7,29.5,15.1,23.9,19.9C18.4,24.7,14.4,29.9,9.3,31.3C4.2,32.6,-2,30.1,-6,26.2C-10,22.4,-12,17.2,-17.5,13.6C-23,10,-32.2,8,-36.5,2.9C-40.9,-2.2,-40.5,-10.3,-37.8,-17.6C-35,-25,-29.8,-31.7,-23.1,-34.8C-16.4,-37.9,-8.2,-37.5,-0.7,-36.4C6.8,-35.3,13.6,-33.6,21,-30.7Z" width="100%" height="100%" transform="translate(50 50)" stroke-width="0" style="transition: 0.3s;"></path>
</svg>